# xmcd
#
# Track frame offsets:
#	150
#	31530
#	59497
#	73075
#	86555
#	128180
#	155802
#	170862
#	202480
#	219505
#	245722
#
# Disc length: 4137 seconds
#
# Revision: 1
# Processed by: cddbd v1.5.1PL0 Copyright (c) Steve Scherf et al.
# Submitted via: CDex 1.50Beta5
#
DISCID=ad10270b
DTITLE=さまざまなアーティスト - CM クラシックvol 1
DYEAR=1900
DGENRE=Classical
TTITLE0=くるみわり人形
TTITLE1=夢
TTITLE2=エリーゼのために
TTITLE3=ラデッキー・マーチ
TTITLE4=トッカータとフーガニ短調bmv565
TTITLE5=幻想交響曲
TTITLE6=白鳥
TTITLE7=亜麻色の髪の乙女
TTITLE8=軍隊行進曲
TTITLE9=メリー・ウィドウ・ワルツ
TTITLE10=ボレロ
EXTD=
EXTT0=
EXTT1=
EXTT2=
EXTT3=
EXTT4=
EXTT5=
EXTT6=
EXTT7=
EXTT8=
EXTT9=
EXTT10=
PLAYORDER=
